<svg xmlns="http://www.w3.org/2000/svg" width="40.461" height="40.461" viewBox="0 0 40.461 40.461"><circle cx="19.73" cy="19.73" r="19.73" transform="translate(0.5 0.5)" fill="none" stroke="#fff" stroke-width="1"/><g opacity="0.8"><path d="M11.594,13.061H29.406c.328,0,.594-.462.594-1.031S29.734,11,29.406,11H11.594c-.328,0-.594.462-.594,1.031S11.266,13.061,11.594,13.061Z" fill="#fff"/><path d="M29.406,19.061H11.594c-.328,0-.594.462-.594,1.031s.266,1.031.594,1.031H29.406c.328,0,.594-.462.594-1.031S29.734,19.061,29.406,19.061Z" fill="#fff"/><path d="M29.406,27.122H11.594c-.328,0-.594.462-.594,1.03s.266,1.031.594,1.031H29.406c.328,0,.594-.462.594-1.031S29.734,27.122,29.406,27.122Z" fill="#fff"/></g></svg>