<svg xmlns="http://www.w3.org/2000/svg" xmlns:xlink="http://www.w3.org/1999/xlink" width="40.461" height="40.461" viewBox="0 0 40.461 40.461"><defs><clipPath id="a"><rect width="17.983" height="17.983" transform="translate(10.789 11.689)" fill="#fff"/></clipPath></defs><circle cx="19.73" cy="19.73" r="19.73" transform="translate(0.5 0.5)" fill="none" stroke="#fff" stroke-width="1"/><g clip-path="url(#a)"><path d="M27.329,23.492a10.211,10.211,0,0,1-3.206-.511,1.411,1.411,0,0,0-1.425.3l-2.022,1.526a11.174,11.174,0,0,1-5.024-5.023l1.481-1.969a1.454,1.454,0,0,0,.358-1.473,10.225,10.225,0,0,1-.513-3.212,1.445,1.445,0,0,0-1.443-1.443h-3.3a1.445,1.445,0,0,0-1.443,1.443,16.558,16.558,0,0,0,16.54,16.54,1.445,1.445,0,0,0,1.443-1.443V24.935A1.445,1.445,0,0,0,27.329,23.492Zm.444,4.736a.444.444,0,0,1-.444.444,15.558,15.558,0,0,1-15.541-15.54.444.444,0,0,1,.444-.444h3.3a.444.444,0,0,1,.444.444,11.2,11.2,0,0,0,.561,3.517.5.5,0,0,1-.158.512l-1.717,2.274a.5.5,0,0,0-.047.527A12.4,12.4,0,0,0,20.5,25.842a.5.5,0,0,0,.529-.046l2.326-1.762a.441.441,0,0,1,.453-.105,11.216,11.216,0,0,0,3.525.563.444.444,0,0,1,.444.444Z" fill="#fff"/></g></svg>